<mxfile host="app.diagrams.net" agent="Mozilla/5.0 (Windows NT 10.0; Win64; x64) AppleWebKit/537.36 (KHTML, like Gecko) Chrome/131.0.0.0 Safari/537.36" version="24.8.8">
  <diagram name="Page-1" id="SJ87eWfn9eQxjJyZifXm">
    <mxGraphModel dx="1050" dy="557" grid="1" gridSize="10" guides="1" tooltips="1" connect="1" arrows="1" fold="1" page="1" pageScale="1" pageWidth="1400" pageHeight="850" math="0" shadow="1">
      <root>
        <mxCell id="0" />
        <mxCell id="1" parent="0" />
        <mxCell id="C1T18Cza7Uqyj3mJv797-58" value="" style="rounded=0;whiteSpace=wrap;html=1;fillColor=#f8cecc;fillStyle=solid;strokeColor=#b85450;" parent="1" vertex="1">
          <mxGeometry x="220" y="360" width="748" height="350" as="geometry" />
        </mxCell>
        <mxCell id="C1T18Cza7Uqyj3mJv797-4" value="" style="rounded=0;whiteSpace=wrap;html=1;fillColor=none;" parent="1" vertex="1">
          <mxGeometry x="200" y="110" width="960" height="630" as="geometry" />
        </mxCell>
        <mxCell id="C1T18Cza7Uqyj3mJv797-56" value="" style="rounded=0;whiteSpace=wrap;html=1;fillColor=#dae8fc;strokeColor=#6c8ebf;" parent="1" vertex="1">
          <mxGeometry x="240" y="480" width="706" height="210" as="geometry" />
        </mxCell>
        <mxCell id="C1T18Cza7Uqyj3mJv797-5" value="MVC Pattern Implementation (hipznguyen14 Lims)" style="text;html=1;align=center;verticalAlign=middle;resizable=0;points=[];autosize=1;strokeColor=none;fillColor=none;" parent="1" vertex="1">
          <mxGeometry x="545" y="70" width="290" height="30" as="geometry" />
        </mxCell>
        <mxCell id="AO_MwMtkG47CEy4HfR63-2" style="edgeStyle=orthogonalEdgeStyle;rounded=0;orthogonalLoop=1;jettySize=auto;html=1;endArrow=none;endFill=0;" parent="1" source="C1T18Cza7Uqyj3mJv797-6" target="AO_MwMtkG47CEy4HfR63-1" edge="1">
          <mxGeometry relative="1" as="geometry" />
        </mxCell>
        <mxCell id="AO_MwMtkG47CEy4HfR63-7" value="Inherit" style="edgeLabel;html=1;align=center;verticalAlign=middle;resizable=0;points=[];" parent="AO_MwMtkG47CEy4HfR63-2" vertex="1" connectable="0">
          <mxGeometry x="0.0158" relative="1" as="geometry">
            <mxPoint as="offset" />
          </mxGeometry>
        </mxCell>
        <mxCell id="C1T18Cza7Uqyj3mJv797-6" value="com.qlthuvien.model" style="rounded=1;whiteSpace=wrap;html=1;" parent="1" vertex="1">
          <mxGeometry x="268" y="605" width="120" height="60" as="geometry" />
        </mxCell>
        <mxCell id="C1T18Cza7Uqyj3mJv797-45" style="edgeStyle=orthogonalEdgeStyle;rounded=0;orthogonalLoop=1;jettySize=auto;html=1;" parent="1" target="C1T18Cza7Uqyj3mJv797-8" edge="1">
          <mxGeometry relative="1" as="geometry">
            <mxPoint x="748" y="184" as="sourcePoint" />
          </mxGeometry>
        </mxCell>
        <mxCell id="C1T18Cza7Uqyj3mJv797-52" value="Display data" style="edgeLabel;html=1;align=center;verticalAlign=middle;resizable=0;points=[];" parent="C1T18Cza7Uqyj3mJv797-45" vertex="1" connectable="0">
          <mxGeometry x="-0.0235" y="-1" relative="1" as="geometry">
            <mxPoint y="-1" as="offset" />
          </mxGeometry>
        </mxCell>
        <mxCell id="AO_MwMtkG47CEy4HfR63-5" style="edgeStyle=orthogonalEdgeStyle;rounded=0;orthogonalLoop=1;jettySize=auto;html=1;exitX=0;exitY=0.25;exitDx=0;exitDy=0;entryX=1;entryY=0.25;entryDx=0;entryDy=0;" parent="1" target="AO_MwMtkG47CEy4HfR63-1" edge="1">
          <mxGeometry relative="1" as="geometry">
            <mxPoint x="628" y="169" as="sourcePoint" />
          </mxGeometry>
        </mxCell>
        <mxCell id="AO_MwMtkG47CEy4HfR63-12" value="update" style="edgeLabel;html=1;align=center;verticalAlign=middle;resizable=0;points=[];" parent="AO_MwMtkG47CEy4HfR63-5" vertex="1" connectable="0">
          <mxGeometry x="-0.0099" y="-1" relative="1" as="geometry">
            <mxPoint as="offset" />
          </mxGeometry>
        </mxCell>
        <mxCell id="C1T18Cza7Uqyj3mJv797-8" value="resources.fxml" style="rounded=1;whiteSpace=wrap;html=1;" parent="1" vertex="1">
          <mxGeometry x="988" y="154" width="120" height="60" as="geometry" />
        </mxCell>
        <mxCell id="C1T18Cza7Uqyj3mJv797-9" value="Model" style="text;html=1;align=center;verticalAlign=middle;whiteSpace=wrap;rounded=0;" parent="1" vertex="1">
          <mxGeometry x="298" y="124" width="60" height="30" as="geometry" />
        </mxCell>
        <mxCell id="C1T18Cza7Uqyj3mJv797-10" value="Controller" style="text;html=1;align=center;verticalAlign=middle;whiteSpace=wrap;rounded=0;" parent="1" vertex="1">
          <mxGeometry x="658" y="124" width="60" height="30" as="geometry" />
        </mxCell>
        <mxCell id="C1T18Cza7Uqyj3mJv797-11" value="Passive View" style="text;html=1;align=center;verticalAlign=middle;whiteSpace=wrap;rounded=0;" parent="1" vertex="1">
          <mxGeometry x="998" y="124" width="100" height="30" as="geometry" />
        </mxCell>
        <mxCell id="CGFkXE0XyXRtsUfrexfI-2" style="edgeStyle=orthogonalEdgeStyle;rounded=0;orthogonalLoop=1;jettySize=auto;html=1;exitX=0.75;exitY=0;exitDx=0;exitDy=0;entryX=0.5;entryY=1;entryDx=0;entryDy=0;" parent="1" edge="1">
          <mxGeometry relative="1" as="geometry">
            <mxPoint x="658" y="605" as="sourcePoint" />
            <mxPoint x="718" y="220" as="targetPoint" />
            <Array as="points">
              <mxPoint x="658" y="440" />
              <mxPoint x="718" y="440" />
            </Array>
          </mxGeometry>
        </mxCell>
        <mxCell id="CGFkXE0XyXRtsUfrexfI-4" value="get data" style="edgeLabel;html=1;align=center;verticalAlign=middle;resizable=0;points=[];" parent="CGFkXE0XyXRtsUfrexfI-2" vertex="1" connectable="0">
          <mxGeometry x="0.0316" y="-2" relative="1" as="geometry">
            <mxPoint x="-35" y="23" as="offset" />
          </mxGeometry>
        </mxCell>
        <mxCell id="C1T18Cza7Uqyj3mJv797-12" value="com.qlthuvien.dao(Manager)" style="rounded=1;whiteSpace=wrap;html=1;" parent="1" vertex="1">
          <mxGeometry x="478" y="605" width="200" height="60" as="geometry" />
        </mxCell>
        <mxCell id="CGFkXE0XyXRtsUfrexfI-3" style="edgeStyle=orthogonalEdgeStyle;rounded=0;orthogonalLoop=1;jettySize=auto;html=1;exitX=0;exitY=0.5;exitDx=0;exitDy=0;entryX=0.56;entryY=0.013;entryDx=0;entryDy=0;entryPerimeter=0;" parent="1" target="C1T18Cza7Uqyj3mJv797-12" edge="1">
          <mxGeometry relative="1" as="geometry">
            <Array as="points">
              <mxPoint x="640" y="440" />
              <mxPoint x="590" y="440" />
            </Array>
            <mxPoint x="640" y="200" as="sourcePoint" />
            <mxPoint x="590" y="590" as="targetPoint" />
          </mxGeometry>
        </mxCell>
        <mxCell id="CGFkXE0XyXRtsUfrexfI-5" value="update data" style="edgeLabel;html=1;align=center;verticalAlign=middle;resizable=0;points=[];" parent="CGFkXE0XyXRtsUfrexfI-3" vertex="1" connectable="0">
          <mxGeometry x="0.0511" y="-1" relative="1" as="geometry">
            <mxPoint x="-30" y="-14" as="offset" />
          </mxGeometry>
        </mxCell>
        <mxCell id="C1T18Cza7Uqyj3mJv797-21" value="com.qlthuvien.admin&lt;br&gt;controller" style="rounded=1;whiteSpace=wrap;html=1;" parent="1" vertex="1">
          <mxGeometry x="628" y="160" width="120" height="60" as="geometry" />
        </mxCell>
        <mxCell id="C1T18Cza7Uqyj3mJv797-55" style="edgeStyle=orthogonalEdgeStyle;rounded=0;orthogonalLoop=1;jettySize=auto;html=1;exitX=0.5;exitY=0;exitDx=0;exitDy=0;entryX=1;entryY=0.5;entryDx=0;entryDy=0;endArrow=none;endFill=0;" parent="1" edge="1">
          <mxGeometry relative="1" as="geometry">
            <mxPoint x="818" y="629" as="sourcePoint" />
            <mxPoint x="748" y="214" as="targetPoint" />
            <Array as="points">
              <mxPoint x="810" y="629" />
              <mxPoint x="810" y="274" />
              <mxPoint x="748" y="274" />
            </Array>
          </mxGeometry>
        </mxCell>
        <mxCell id="C1T18Cza7Uqyj3mJv797-62" value="Call function" style="edgeLabel;html=1;align=center;verticalAlign=middle;resizable=0;points=[];" parent="C1T18Cza7Uqyj3mJv797-55" vertex="1" connectable="0">
          <mxGeometry x="-0.1766" y="-1" relative="1" as="geometry">
            <mxPoint x="-1" y="54" as="offset" />
          </mxGeometry>
        </mxCell>
        <mxCell id="C1T18Cza7Uqyj3mJv797-53" value="Utils (QR,Database Task,Database Connect, Star Animation)" style="rounded=1;whiteSpace=wrap;html=1;" parent="1" vertex="1">
          <mxGeometry x="758" y="605" width="120" height="60" as="geometry" />
        </mxCell>
        <mxCell id="C1T18Cza7Uqyj3mJv797-57" value="Data &amp;amp; Service core" style="text;html=1;align=center;verticalAlign=middle;whiteSpace=wrap;rounded=0;" parent="1" vertex="1">
          <mxGeometry x="388" y="490" width="120" height="30" as="geometry" />
        </mxCell>
        <mxCell id="C1T18Cza7Uqyj3mJv797-60" value="Full core" style="text;html=1;align=center;verticalAlign=middle;whiteSpace=wrap;rounded=0;" parent="1" vertex="1">
          <mxGeometry x="413" y="370" width="70" height="30" as="geometry" />
        </mxCell>
        <mxCell id="CGFkXE0XyXRtsUfrexfI-11" value="Package core (by hipznguyen14)" style="text;html=1;align=center;verticalAlign=middle;resizable=0;points=[];autosize=1;strokeColor=none;fillColor=none;" parent="1" vertex="1">
          <mxGeometry x="348" y="320" width="200" height="30" as="geometry" />
        </mxCell>
        <mxCell id="AO_MwMtkG47CEy4HfR63-4" style="edgeStyle=orthogonalEdgeStyle;rounded=0;orthogonalLoop=1;jettySize=auto;html=1;exitX=1;exitY=0.75;exitDx=0;exitDy=0;entryX=0;entryY=0.75;entryDx=0;entryDy=0;" parent="1" source="AO_MwMtkG47CEy4HfR63-1" edge="1">
          <mxGeometry relative="1" as="geometry">
            <mxPoint x="628" y="199" as="targetPoint" />
          </mxGeometry>
        </mxCell>
        <mxCell id="AO_MwMtkG47CEy4HfR63-8" value="Text" style="edgeLabel;html=1;align=center;verticalAlign=middle;resizable=0;points=[];" parent="AO_MwMtkG47CEy4HfR63-4" vertex="1" connectable="0">
          <mxGeometry x="-0.0981" y="-1" relative="1" as="geometry">
            <mxPoint x="12" as="offset" />
          </mxGeometry>
        </mxCell>
        <mxCell id="AO_MwMtkG47CEy4HfR63-11" value="notify" style="edgeLabel;html=1;align=center;verticalAlign=middle;resizable=0;points=[];" parent="AO_MwMtkG47CEy4HfR63-4" vertex="1" connectable="0">
          <mxGeometry x="-0.0012" y="1" relative="1" as="geometry">
            <mxPoint as="offset" />
          </mxGeometry>
        </mxCell>
        <mxCell id="AO_MwMtkG47CEy4HfR63-1" value="Model" style="rounded=1;whiteSpace=wrap;html=1;" parent="1" vertex="1">
          <mxGeometry x="268" y="154" width="120" height="60" as="geometry" />
        </mxCell>
      </root>
    </mxGraphModel>
  </diagram>
</mxfile>

